Coordinates
version=1
nRows=6
nColumns=63
inDegrees=yes

Units are S.I. units (second, meters, Newtons, ...)
If the header above contains a line with 'inDegrees', this indicates whether rotational values are in degrees (yes) or radians (no).

endheader
time	pelvis_tilt	pelvis_list	pelvis_rotation	pelvis_tx	pelvis_ty	pelvis_tz	hip_flexion_r	hip_adduction_r	hip_rotation_r	knee_angle_r	knee_angle_r_beta	ankle_angle_r	subtalar_angle_r	mtp_angle_r	hip_flexion_l	hip_adduction_l	hip_rotation_l	knee_angle_l	knee_angle_l_beta	ankle_angle_l	subtalar_angle_l	mtp_angle_l	L5_S1_Flex_Ext	L5_S1_Lat_Bending	L5_S1_axial_rotation	L4_L5_Flex_Ext	L4_L5_Lat_Bending	L4_L5_axial_rotation	L3_L4_Flex_Ext	L3_L4_Lat_Bending	L3_L4_axial_rotation	L2_L3_Flex_Ext	L2_L3_Lat_Bending	L2_L3_axial_rotation	L1_L2_Flex_Ext	L1_L2_Lat_Bending	L1_L2_axial_rotation	L1_T12_Flex_Ext	L1_T12_Lat_Bending	L1_T12_axial_rotation	Abs_r3	Abs_r2	Abs_r1	Abs_t1	Abs_t2	neck_flexion	neck_bending	neck_rotation	arm_flex_r	arm_add_r	arm_rot_r	elbow_flex_r	pro_sup_r	wrist_flex_r	wrist_dev_r	arm_flex_l	arm_add_l	arm_rot_l	elbow_flex_l	pro_sup_l	wrist_flex_l	wrist_dev_l
3.000000	-6.328538	6.238870	67.549479	0.266779	0.759806	0.739347	8.459013	-3.650544	23.849363	18.183603	0.317364	26.690778	-1.433087	0.000000	3.846992	2.836574	-25.940018	15.593608	0.272160	24.946497	-8.112135	0.000000	-0.197779	-0.364976	2.074148	-0.367296	-0.485418	2.203782	-0.324931	-0.887402	2.203782	-0.226042	-0.887402	1.814879	-0.183658	-0.744259	1.685245	-0.113011	-0.565347	1.555611	-1.412717	-4.128679	11.535787	0.000000	0.000000	12.079331	15.679257	-13.708645	4.258049	-5.819038	27.970653	100.220610	79.562966	-5.775612	9.807440	28.342603	-9.364674	17.440088	92.819200	67.409178	18.193132	15.344198
3.019231	-6.336561	6.029192	67.299812	0.266859	0.757885	0.740226	8.721907	-3.633462	23.597291	18.028012	0.314648	27.178356	-0.525604	0.000000	4.159872	2.793804	-25.593389	15.585392	0.272016	25.212064	-8.855941	0.000000	-0.197523	-0.395432	1.784485	-0.366820	-0.525925	1.896015	-0.324510	-0.961454	1.896015	-0.225749	-0.961454	1.561424	-0.183420	-0.806365	1.449894	-0.112865	-0.612524	1.338363	-1.410886	-4.473207	9.924767	0.000000	0.000000	10.974297	15.223738	-13.353825	4.805187	-5.811353	29.794108	94.733318	79.997242	-5.446328	9.659387	22.688417	-9.817974	18.230686	84.848951	67.539177	18.404158	15.402293
3.038462	-6.273666	5.693134	67.346633	0.266476	0.756235	0.740914	8.998057	-3.568223	23.047261	17.773177	0.310200	27.525892	0.364369	0.000000	4.551550	2.675449	-25.040145	15.515115	0.270790	25.421293	-9.439220	0.000000	-0.193221	-0.421221	1.500163	-0.358830	-0.560224	1.593923	-0.317442	-1.024157	1.593923	-0.220832	-1.024157	1.312643	-0.179425	-0.858954	1.218882	-0.110406	-0.652471	1.125122	-1.380156	-4.764937	8.343456	0.000000	0.000000	10.145295	14.384491	-13.327253	5.380583	-5.762152	31.323945	89.246340	80.252142	-5.359090	9.504554	17.070850	-10.348239	19.033508	77.465425	68.142217	18.110938	14.825594
3.057692	-6.170442	5.226472	67.685865	0.265684	0.754818	0.741457	9.305795	-3.478918	22.254081	17.431217	0.304232	27.732426	1.172683	0.000000	5.028618	2.507571	-24.350665	15.373609	0.268320	25.573775	-9.760698	0.000000	-0.184734	-0.443839	1.212792	-0.343069	-0.590306	1.288591	-0.303499	-1.079150	1.288591	-0.211132	-1.079150	1.061193	-0.171544	-0.905076	0.985393	-0.105557	-0.687506	0.909594	-1.319533	-5.020793	6.745185	0.000000	0.000000	9.807985	13.263465	-13.539433	5.972867	-5.670031	32.609240	83.857776	80.488421	-5.450174	9.410722	11.871151	-10.989401	19.776119	70.962314	69.290000	17.473591	13.560987
3.076923	-6.035578	4.644313	68.305765	0.264481	0.753627	0.741934	9.646929	-3.381719	21.203004	17.016568	0.296995	27.810393	1.936980	0.000000	5.579175	2.310978	-23.506430	15.149254	0.264404	25.643959	-9.871240	0.000000	-0.173106	-0.461037	0.925702	-0.321475	-0.613179	0.983559	-0.284396	-1.120964	0.983559	-0.197843	-1.120964	0.809989	-0.160746	-0.940146	0.752133	-0.098913	-0.714146	0.694277	-1.236478	-5.215338	5.148478	0.000000	0.000000	10.098143	11.895314	-13.920548	6.576372	-5.568165	33.735581	78.646132	80.621450	-5.700818	9.373559	7.410493	-11.697355	20.495647	65.503254	70.957546	16.440692	11.687990
3.096154	-5.875915	3.974643	69.159809	0.262906	0.752652	0.742386	10.012650	-3.279631	19.981725	16.545901	0.288780	27.778273	2.610241	0.000000	6.163294	2.096395	-22.622648	14.813038	0.258536	25.653941	-9.643324	0.000000	-0.157403	-0.470566	0.665299	-0.292314	-0.625853	0.706880	-0.258598	-1.144135	0.706880	-0.179896	-1.144135	0.582137	-0.146165	-0.959579	0.540556	-0.089940	-0.728907	0.498974	-1.124316	-5.323142	3.700195	0.000000	0.000000	10.989937	10.225164	-14.466437	7.146207	-5.468006	34.644681	73.718201	80.528057	-5.987599	9.387820	3.885851	-12.335585	21.224868	61.138543	73.107912	14.979143	9.414498
